HIERARCHY
ROOT root
{
	OFFSET 0.000000 0.000000 0.000000
	CHANNELS 6 Xposition Yposition Zposition Zrotation Yrotation Xrotation
	JOINT lhip
	{
		OFFSET 0.058581 -0.082280 -0.017664
		CHANNELS 3 Zrotation Yrotation Xrotation
		JOINT lknee
		{
			OFFSET 0.043451 -0.386469 0.008037
			CHANNELS 3 Zrotation Yrotation Xrotation
			JOINT lankle
			{
				OFFSET -0.014790 -0.426874 -0.037428
				CHANNELS 3 Zrotation Yrotation Xrotation
				JOINT ltoe
				{
					OFFSET 0.041054 -0.060286 0.122042
					CHANNELS 3 Zrotation Yrotation Xrotation
					End Site
					{
						OFFSET 0.000000 0.000000 0.000000
					}
				}
			}
		}
	}
	JOINT rhip
	{
		OFFSET -0.060310 -0.090513 -0.013543
		CHANNELS 3 Zrotation Yrotation Xrotation
		JOINT rknee
		{
			OFFSET -0.043257 -0.383688 -0.004843
			CHANNELS 3 Zrotation Yrotation Xrotation
			JOINT rankle
			{
				OFFSET 0.019056 -0.420046 -0.034562
				CHANNELS 3 Zrotation Yrotation Xrotation
				JOINT rtoe
				{
					OFFSET -0.034840 -0.062106 0.130323
					CHANNELS 3 Zrotation Yrotation Xrotation
					End Site
					{
						OFFSET 0.000000 0.000000 0.000000
					}
				}
			}
		}
	}
	JOINT lowerback
	{
		OFFSET 0.004439 0.124404 -0.038385
		CHANNELS 3 Zrotation Yrotation Xrotation
		JOINT upperback
		{
			OFFSET 0.004488 0.137956 0.026820
			CHANNELS 3 Zrotation Yrotation Xrotation
			JOINT chest
			{
				OFFSET -0.002265 0.056032 0.002855
				CHANNELS 3 Zrotation Yrotation Xrotation
				JOINT lowerneck
				{
					OFFSET -0.013390 0.211636 -0.033468
					CHANNELS 3 Zrotation Yrotation Xrotation
					JOINT upperneck
					{
						OFFSET 0.010113 0.088937 0.050410
						CHANNELS 3 Zrotation Yrotation Xrotation
						End Site
						{
							OFFSET 0.000000 0.000000 0.000000
						}
					}
				}
				JOINT lclavicle
				{
					OFFSET 0.071702 0.114000 -0.018898
					CHANNELS 3 Zrotation Yrotation Xrotation
					JOINT lshoulder
					{
						OFFSET 0.122921 0.045205 -0.019046
						CHANNELS 3 Zrotation Yrotation Xrotation
						JOINT lelbow
						{
							OFFSET 0.255332 -0.015649 -0.022946
							CHANNELS 3 Zrotation Yrotation Xrotation
							JOINT lwrist
							{
								OFFSET 0.265709 0.012698 -0.007375
								CHANNELS 3 Zrotation Yrotation Xrotation
								End Site
								{
									OFFSET 0.000000 0.000000 0.000000
								}
							}
						}
					}
				}
				JOINT rclavicle
				{
					OFFSET -0.082954 0.112472 -0.023707
					CHANNELS 3 Zrotation Yrotation Xrotation
					JOINT rshoulder
					{
						OFFSET -0.113228 0.046853 -0.008472
						CHANNELS 3 Zrotation Yrotation Xrotation
						JOINT relbow
						{
							OFFSET -0.260127 -0.014369 -0.031269
							CHANNELS 3 Zrotation Yrotation Xrotation
							JOINT rwrist
							{
								OFFSET -0.269108 0.006794 -0.006027
								CHANNELS 3 Zrotation Yrotation Xrotation
								End Site
								{
									OFFSET 0.000000 0.000000 0.000000
								}
							}
						}
					}
				}
			}
		}
	}
}
MOTION
Frames: 8
Frame Time: 0.033333
-0.477553 0.991721 0.972632 77.863884 -3.245694 82.741006 -3.791027 -2.270494 4.389109 -5.115170 -7.004163 18.323059 4.938982 19.703320 -25.598961 0.000000 -0.000000 0.000000 -5.256845 5.807677 -36.998456 2.300173 -5.367196 64.110283 6.376201 -17.959924 -7.791534 0.000000 -0.000000 0.000000 -3.826088 -10.047785 12.147635 -3.196612 -0.766392 -7.051147 -4.682916 -3.731006 7.619457 1.901335 -11.721428 13.945413 -5.599697 3.063870 27.479584 -21.867413 7.446133 1.668974 -50.245198 -3.237627 21.490054 -28.992049 -79.394162 55.906883 -5.629365 -11.361814 -11.175532 6.058087 -3.542587 -16.214147 1.531271 16.726878 -10.435836 -51.370374 49.620707 -45.353161 21.656118 8.224026 0.684642 
-0.473913 0.989050 0.970874 76.840365 -3.500636 82.612516 -4.103304 -2.217774 4.939300 -5.171198 -6.670106 18.198601 5.589979 20.346537 -25.535383 0.000000 -0.000000 0.000000 -5.447418 5.167598 -37.717505 2.187822 -7.004961 67.200658 6.070088 -18.373709 -6.805651 0.000000 -0.000000 0.000000 -4.337413 -10.306051 12.564941 -3.385502 -1.187014 -7.385523 -4.928894 -3.907269 7.487394 1.872629 -11.120519 12.696147 -5.841273 3.672053 27.693825 -22.099316 6.986926 0.981765 -49.833274 -3.168290 22.157279 -33.657113 -79.963204 59.936614 -5.098275 -11.272845 -12.251225 5.795479 -3.880903 -17.351682 2.356906 17.381398 -9.644361 -61.171534 51.919126 -55.800280 23.384964 8.751663 -5.104972 
-0.468932 0.985172 0.970088 75.639592 -3.905131 82.748668 -4.824415 -2.302849 5.787291 -4.622802 -6.363803 17.206775 5.970121 21.163348 -25.092634 0.000000 -0.000000 0.000000 -6.067875 4.060923 -38.005485 1.666294 -8.561326 70.173163 5.732085 -19.299470 -5.744575 0.000000 -0.000000 0.000000 -4.610356 -10.168597 12.423751 -3.648681 -1.351589 -7.766863 -5.257982 -4.003461 7.485586 1.851102 -11.201029 11.716993 -5.959897 3.668154 27.663926 -22.192198 6.197810 0.506731 -49.582232 -3.435319 23.071421 -36.808774 -80.208659 62.503312 -4.054502 -11.188148 -13.643170 5.360418 -3.794374 -18.586608 2.658419 18.850245 -8.958015 -71.103025 53.199673 -66.276325 24.086410 9.129758 -10.821117 
-0.463753 0.979457 0.970288 74.250632 -3.988417 83.190036 -5.013249 -1.983957 6.458319 -3.849381 -5.803451 16.001376 6.044824 21.256051 -24.429024 0.000000 -0.000000 0.000000 -6.323840 2.488366 -37.777138 1.105894 -9.992198 72.555838 5.212425 -19.787806 -4.634030 0.000000 -0.000000 0.000000 -4.294775 -10.065814 11.792288 -3.967085 -1.461745 -8.022413 -5.519010 -3.825283 7.350022 1.740066 -11.789803 10.787440 -6.119715 3.430162 27.402674 -22.252221 5.303898 -0.152178 -49.363118 -3.634985 23.790666 -42.457411 -79.952315 67.754202 -3.917819 -11.311814 -13.909161 4.482330 -2.760041 -19.590707 2.326699 21.393978 -8.930624 -79.090057 53.796517 -74.890901 23.512873 9.141999 -14.318934 
-0.458175 0.972293 0.971467 72.745196 -4.134504 83.774890 -5.062308 -1.414103 7.175671 -3.186075 -5.217220 14.525100 6.031709 21.168453 -23.403948 0.000000 -0.000000 0.000000 -6.588722 0.437289 -36.696934 0.743911 -11.289063 73.903032 4.605499 -19.684757 -3.054436 0.000000 -0.000000 0.000000 -3.809058 -9.712326 10.923141 -4.444988 -1.304233 -8.145298 -5.770949 -3.493143 7.011483 1.449399 -12.856307 9.998237 -5.926974 2.973492 26.995753 -22.153239 4.069173 -0.758723 -49.122282 -3.781544 24.624438 -49.457823 -79.533983 74.699382 -3.349650 -10.874209 -14.252716 3.187471 -1.045730 -20.151727 1.454161 24.254648 -9.573963 -84.335026 54.275325 -81.148922 21.692672 8.767333 -17.605027 
-0.453750 0.962861 0.972972 70.823388 -4.126537 84.665440 -4.645364 -0.972300 7.410108 -2.702110 -3.770248 13.489907 5.729406 20.514534 -22.269537 0.000000 -0.000000 0.000000 -6.363837 -1.534726 -35.117177 0.451395 -12.599626 73.811965 4.394253 -19.382194 -0.588939 0.000000 -0.000000 0.000000 -3.171456 -8.690336 9.565691 -4.846963 -0.861931 -7.797109 -5.951003 -3.057391 6.561607 1.096242 -14.473516 9.509347 -5.422757 2.509568 25.819007 -22.090676 2.461385 -1.065015 -48.730178 -4.249630 25.670337 -55.349412 -79.121016 80.258815 -2.119317 -10.615623 -14.488629 1.613763 1.061555 -20.382878 0.158044 27.290308 -10.559376 -86.488806 54.548699 -84.949474 20.075360 8.533384 -21.074268 
-0.449155 0.950803 0.974206 68.282917 -4.196413 85.192475 -3.965713 -0.170330 7.833092 -2.584265 -2.840939 13.423337 5.087848 19.498843 -20.978251 0.000000 -0.000000 0.000000 -5.361189 -2.796966 -32.085335 0.597965 -12.659521 71.338543 4.023235 -17.743333 2.619452 0.000000 -0.000000 0.000000 -2.646555 -7.362238 8.555144 -5.444264 -0.167354 -7.460936 -6.090866 -2.245119 6.142913 0.736431 -15.879679 9.398778 -4.475610 1.944669 24.341592 -21.745452 0.611665 -1.444012 -48.312784 -4.382559 26.626498 -61.887805 -78.802426 86.546320 -0.854611 -10.379616 -15.239452 -0.304969 3.631826 -20.357031 -0.405238 30.226122 -11.794411 -86.034905 55.051681 -85.980222 17.952331 8.283793 -23.952593 
-0.446180 0.936912 0.974731 64.977837 -4.687690 86.186319 -3.254976 -0.424164 6.027162 -3.775462 -0.732195 16.841348 3.722757 18.689025 -19.874632 0.000000 -0.000000 0.000000 -4.216761 -2.932927 -28.478960 1.509133 -11.605371 65.938726 5.316573 -14.449957 -0.453060 0.000000 -0.000000 0.000000 -2.885713 -5.232893 6.956642 -5.784500 0.496812 -6.705818 -6.313156 -1.343229 5.626681 1.437102 -15.977257 8.910564 -3.915220 0.247603 23.235473 -21.398807 -1.016003 -1.979112 -47.794010 -4.498668 27.933266 -66.568556 -78.761176 90.622324 0.440403 -10.398472 -16.218613 -1.613852 6.305564 -20.079132 -0.086390 33.650731 -12.774901 -83.261083 55.431573 -85.103811 14.542546 8.558616 -29.100527 
